<svg width="100" height="118" xmlns="http://www.w3.org/2000/svg">
 <!-- Created with Method Draw - http://github.com/duopixel/Method-Draw/ -->

 <g>
  <title>background</title>
  <rect fill="none" id="canvas_background" height="120" width="102" y="-1" x="-1"/>
  <g display="none" overflow="visible" y="0" x="0" height="100%" width="100%" id="canvasGrid">
   <rect fill="url(#gridpattern)" stroke-width="0" y="0" x="0" height="100%" width="100%"/>
  </g>
 </g>
 <g>
  <title>Layer 1</title>
  <g id="svg_36">
   <g id="svg_38">
    <polygon stroke="null" id="svg_7" fill="#5859f3" points="97.00900268554688,87.55912780761719 96.99899291992188,87.56446838378906 52.527496337890625,112.32746887207031 3.830169677734375,87.97883605957031 2.990997314453125,87.55912780761719 5.51849365234375,37.01203918457031 49.494476318359375,5.6725311279296875 49.980010986328125,5.9759063720703125 95.49258422851562,34.48454284667969 97.00900268554688,87.55912780761719 "/>
    <polygon stroke="null" id="svg_8" opacity="0.3" points="96.99899291992188,87.56446838378906 52.527496337890625,112.32746887207031 3.830169677734375,87.97883605957031 46.96722412109375,57.73649597167969 96.99899291992188,87.56446838378906 "/>
    <polygon stroke="null" id="svg_9" opacity="0.1" points="97.00900268554688,87.55912780761719 46.96722412109375,57.73649597167969 49.980010986328125,5.9759063720703125 95.49258422851562,34.48454284667969 97.00900268554688,87.55912780761719 "/>
    <polygon stroke="null" id="svg_10" fill="#f2f2f2" points="4.87103271484375,52.60966491699219 4.62396240234375,52.25975036621094 49.091064453125,20.873031616210938 96.06423950195312,50.32389831542969 95.83670043945312,50.68681335449219 49.104766845703125,21.387435913085938 4.87103271484375,52.60966491699219 "/>
    <polygon stroke="null" id="svg_11" fill="#f2f2f2" points="4.009063720703125,69.78184509277344 3.76873779296875,69.42774963378906 48.010162353515625,39.39109802246094 48.12603759765625,39.45692443847656 96.10379028320312,66.64875793457031 95.89230346679688,67.02122497558594 48.030426025390625,39.89500427246094 4.009063720703125,69.78184509277344 "/>
    <polygon stroke="null" id="svg_12" fill="#f2f2f2" points="20.8895263671875,96.63401794433594 20.663848876953125,96.26991271972656 65.25167846679688,68.64140319824219 65.25167846679688,15.676376342773438 65.67974853515625,15.676376342773438 65.67974853515625,68.88008117675781 20.8895263671875,96.63401794433594 "/>
    <polygon stroke="null" id="svg_13" fill="#f2f2f2" points="38.39019775390625,105.38319396972656 38.16265869140625,105.02049255371094 81.09542846679688,78.09223937988281 81.09542846679688,25.600448608398438 81.52371215820312,25.600448608398438 81.52371215820312,78.32905578613281 38.39019775390625,105.38319396972656 "/>
    <polygon stroke="null" id="svg_14" fill="#f2f2f2" points="80.93374633789062,96.63911437988281 31.002471923828125,68.89662170410156 31.009674072265625,68.76329040527344 33.63812255859375,16.809616088867188 34.06573486328125,16.831497192382812 31.44403076171875,68.65162658691406 81.14199829101562,96.26478576660156 80.93374633789062,96.63911437988281 "/>
    <polygon stroke="null" id="svg_15" fill="#f2f2f2" points="65.22470092773438,105.39155578613281 15.854095458984375,79.51930236816406 15.861785888671875,79.38203430175781 18.772186279296875,27.402755737304688 19.199798583984375,27.426712036132812 16.29730224609375,79.26826477050781 65.42361450195312,105.01210021972656 65.22470092773438,105.39155578613281 "/>
   </g>
  </g>
 </g>
</svg>